<?xml version="1.0" encoding="UTF-8" standalone="no"?>
<!DOCTYPE svg PUBLIC "-//W3C//DTD SVG 1.1//EN" "http://www.w3.org/Graphics/SVG/1.1/DTD/svg11.dtd">
<svg width="100%" height="100%" viewBox="0 0 1000 500" version="1.1" xmlns="http://www.w3.org/2000/svg" xmlns:xlink="http://www.w3.org/1999/xlink" xml:space="preserve" xmlns:serif="http://www.serif.com/" style="fill-rule:evenodd;clip-rule:evenodd;stroke-linecap:round;stroke-linejoin:round;stroke-miterlimit:1.5;">
    <g transform="matrix(0.583466,0,0,0.583466,741.704,250)">
        <g transform="matrix(1,0,0,1,-240.277,-237.5)">
            <g id="path4486" transform="matrix(4.16667,0,0,4.16667,0,0)">
                <path d="M56.667,0.667C25.372,0.667 0,26.036 0,57.332C0,88.627 25.372,113.998 56.667,113.998C87.962,113.998 113.333,88.627 113.333,57.332C113.333,26.036 87.961,0.667 56.667,0.667ZM56.667,106.722C47.763,106.722 40.544,100.774 40.544,93.439L72.79,93.439C72.79,100.773 65.571,106.722 56.667,106.722ZM83.298,89.04L30.034,89.04L30.034,79.382L83.298,79.382L83.298,89.04ZM83.106,74.411L30.186,74.411C30.01,74.208 29.83,74.008 29.66,73.802C24.208,67.182 22.924,63.726 21.677,60.204C21.656,60.088 28.288,61.559 32.991,62.617C32.991,62.617 35.411,63.177 38.949,63.822C35.552,59.84 33.535,54.778 33.535,49.604C33.535,38.245 42.247,28.319 39.104,20.296C42.163,20.545 45.435,26.752 45.656,36.457C48.908,31.963 50.269,23.756 50.269,18.724C50.269,13.514 53.702,7.462 57.136,7.255C54.075,12.3 57.929,16.625 61.355,27.354C62.64,31.384 62.476,38.166 63.468,42.467C63.797,33.534 65.333,20.5 71,16C68.5,21.667 71.37,28.758 73.333,32.167C76.5,37.667 78.42,41.834 78.42,49.715C78.42,54.999 76.469,59.974 73.178,63.863C76.92,63.161 79.504,62.528 79.504,62.528L91.656,60.157C91.657,60.156 89.891,67.418 83.106,74.411Z" style="fill:rgb(230,82,44);fill-rule:nonzero;"/>
            </g>
        </g>
    </g>
    <g transform="matrix(0.447583,0,0,0.447583,258.296,250)">
        <g transform="matrix(1,0,0,1,-354.375,-354.375)">
            <g transform="matrix(4.16667,0,0,4.16667,0,0)">
                <path d="M112.2,142.1L156,142.1C156,137.8 151.8,128.7 128.2,128.7C128.2,128.7 142,118.1 142,106.5C142,102.5 140.2,97.6 128.3,97.9C136.5,91.6 141.4,83.4 141.4,74.5C141.4,63.2 133.5,53.2 121.1,46.5C121.8,43.9 122.2,41 122.2,38.1C122.2,24.9 114.6,14.2 105.1,14.2C95.6,14.2 88,24.9 88,38.1L88,38.2C87,38.2 86,38.1 85,38.1C84,38.1 83,38.1 82,38.2L82,38.1C82,24.9 74.4,14.2 64.9,14.2C55.4,14.2 47.9,24.9 47.9,38.1C47.9,41.1 48.3,43.9 49,46.5C36.6,53.2 28.7,63.2 28.7,74.5C28.7,83.4 33.6,91.6 41.8,97.9C29.9,97.6 28.1,102.4 28.1,106.5C28.1,118.1 41.9,128.7 41.9,128.7C18.3,128.7 14.1,137.8 14.1,142.1L56.6,142.1C54.4,143.7 52.2,146.2 52.2,148.5C52.2,149.8 53.1,150.4 54,150.4C56.4,150.4 60.6,148 60.6,148C60.6,148 61.9,155.9 64.1,155.9C66.2,155.9 68.9,148.1 68.9,148.1C68.9,148.1 73.7,149.9 76,149.9C77.7,149.9 77.8,148.6 77.8,148.4C77.8,146.5 75.8,143.9 74.2,142L94.5,142C92.9,143.8 90.9,146.4 90.9,148.4C90.9,148.6 91,149.9 92.7,149.9C94.9,149.9 99.8,148.1 99.8,148.1C99.8,148.1 102.5,155.9 104.6,155.9C106.7,155.9 108.1,148 108.1,148C108.1,148 112.3,150.4 114.7,150.4C115.7,150.4 116.5,149.8 116.5,148.5C116.5,146.2 114.4,143.7 112.2,142.1Z" style="fill:rgb(24,158,255);fill-rule:nonzero;"/>
            </g>
            <g transform="matrix(4.16667,0,0,4.16667,0,0)">
                <ellipse cx="64.9" cy="46.3" rx="11.9" ry="15.2" style="fill:white;"/>
            </g>
            <g transform="matrix(4.16667,0,0,4.16667,0,0)">
                <path d="M64.9,37.7C60,37.7 56,42 56,47.4C56,52.8 60,57 64.9,57C69.8,57 73.8,52.7 73.8,47.4C73.8,42.1 69.8,37.7 64.9,37.7ZM62.8,48.3C60.5,48.3 58.6,46.2 58.6,43.6C58.6,41 60.5,38.9 62.8,38.9C65.1,38.9 67,41 67,43.6C67.1,46.2 65.2,48.3 62.8,48.3ZM69.4,46.5C68.6,46.5 67.9,45.8 67.9,45C67.9,44.2 68.6,43.5 69.4,43.5C70.2,43.5 70.9,44.2 70.9,45C70.9,45.8 70.2,46.5 69.4,46.5Z" style="fill:rgb(29,29,27);fill-rule:nonzero;"/>
            </g>
            <g transform="matrix(4.16667,0,0,4.16667,0,0)">
                <ellipse cx="105.2" cy="46.3" rx="11.9" ry="15.2" style="fill:white;"/>
            </g>
            <g transform="matrix(4.16667,0,0,4.16667,0,0)">
                <path d="M105.1,37.7C100.2,37.7 96.2,42 96.2,47.3C96.2,52.6 100.2,56.9 105.1,56.9C110,56.9 114,52.6 114,47.3C114,42 110,37.7 105.1,37.7ZM103.1,48.3C100.8,48.3 98.9,46.2 98.9,43.6C98.9,41 100.8,38.9 103.1,38.9C105.4,38.9 107.3,41 107.3,43.6C107.3,46.2 105.4,48.3 103.1,48.3ZM109.6,46.5C108.8,46.5 108.1,45.8 108.1,45C108.1,44.2 108.8,43.5 109.6,43.5C110.4,43.5 111.1,44.2 111.1,45C111.1,45.8 110.4,46.5 109.6,46.5Z" style="fill:rgb(29,29,27);fill-rule:nonzero;"/>
            </g>
            <g transform="matrix(4.16667,0,0,4.16667,0,0)">
                <ellipse cx="80.2" cy="79.1" rx="1.2" ry="1.5" style="fill:rgb(29,29,27);"/>
                <ellipse cx="90.3" cy="79.1" rx="1.2" ry="1.5" style="fill:rgb(29,29,27);"/>
                <path d="M55.1,97.6C55.1,97.6 72.2,104.3 87,104.3C101.8,104.3 115.4,96.8 115.4,96.8C115.4,96.8 102.6,106.2 85.7,106.2C72.1,106.1 55.1,97.6 55.1,97.6Z" style="fill:rgb(29,29,27);fill-rule:nonzero;"/>
            </g>
            <g transform="matrix(4.16667,0,0,4.16667,0,0)">
                <path d="M85,111C74.2,111 64,109 55.4,105.6L55.4,107.8C55.4,123.6 68.6,136.4 85,136.4C101.4,136.4 114.6,123.6 114.6,107.8L114.6,105.6C106,109 95.9,111 85,111Z" style="fill:white;fill-rule:nonzero;"/>
            </g>
            <g transform="matrix(4.16667,0,0,4.16667,0,0)">
                <path d="M89.5,127.4C88.9,126.9 87.9,126.6 86.9,126.2C85.7,125.7 84.4,125.2 83.4,124.4C82.3,123.5 81.7,122.4 81.7,120.9C81.7,119.6 82.2,118.5 83.2,117.7C84.3,116.8 86.1,116.3 88.2,116.3C88.8,116.3 89.3,116.3 89.9,116.4C89.9,116.4 90,116.4 90,116.3L90,116.2C88.7,115 86.9,114.3 85.1,114.3C83.2,114.3 81.3,115.1 80,116.4C78.6,117.8 77.9,119.6 77.9,121.5C77.9,123.4 78.7,125.2 80,126.6C81.4,128 83.2,128.7 85.1,128.7C86.7,128.7 88.2,128.2 89.4,127.3C89.5,127.6 89.5,127.5 89.5,127.4C89.5,127.5 89.5,127.4 89.5,127.4Z" style="fill:rgb(24,158,255);fill-rule:nonzero;"/>
                <path d="M92.4,121.1C90.8,119.8 89.6,119.3 88.1,119.3C87.3,119.3 86.7,119.5 86.3,119.8C85.9,120.1 85.8,120.4 85.8,120.9C85.8,122.1 87.3,122.7 89.1,123.4C90,123.7 91,124.1 91.8,124.6L91.9,124.6C91.9,124.6 92,124.6 92,124.5C92.3,123.7 92.5,122.8 92.5,121.9C92.5,121.6 92.4,121.3 92.4,121.1Z" style="fill:rgb(24,158,255);fill-rule:nonzero;"/>
            </g>
        </g>
    </g>
    <g transform="matrix(1,0,0,1,0,100)">
        <path d="M447.205,111.664L533.839,198.298" style="fill:none;stroke:black;stroke-width:12.5px;"/>
    </g>
    <g transform="matrix(6.12323e-17,1,-1,6.12323e-17,645.503,-235.541)">
        <path d="M447.205,111.664L533.839,198.298" style="fill:none;stroke:black;stroke-width:12.5px;"/>
    </g>
</svg>
